<?xml version="1.0" encoding="UTF-8" standalone="no" ?>
<!DOCTYPE svg PUBLIC "-//W3C//DTD SVG 1.1//EN" "http://www.w3.org/Graphics/SVG/1.1/DTD/svg11.dtd">
<svg xmlns="http://www.w3.org/2000/svg" xmlns:xlink="http://www.w3.org/1999/xlink" version="1.1" width="21" height="23" viewBox="0 0 21 23" xml:space="preserve">
<desc>Created with Fabric.js 3.6.3</desc>
<defs>
</defs>
<g transform="matrix(1 0 0 1 10.75 11.51)"  >
<path style="stroke: rgb(255,255,255); stroke-width: 2; stroke-dasharray: none; stroke-linecap: round; stroke-dashoffset: 0; stroke-linejoin: round; stroke-miterlimit: 4; fill: rgb(255,255,255); fill-rule: nonzero; opacity: 1;"  transform=" translate(-11.75, -11.49)" d="M 9 19 c -5 1.5 -5 -2.5 -7 -3 m 14 6 v -3.87 a 3.37 3.37 0 0 0 -0.94 -2.61 c 3.14 -0.35 6.44 -1.54 6.44 -7 A 5.44 5.44 0 0 0 20 4.77 A 5.07 5.07 0 0 0 19.91 1 S 18.73 0.65 16 2.48 a 13.38 13.38 0 0 0 -7 0 C 6.27 0.65 5.09 1 5.09 1 A 5.07 5.07 0 0 0 5 4.77 a 5.44 5.44 0 0 0 -1.5 3.78 c 0 5.42 3.3 6.61 6.44 7 A 3.37 3.37 0 0 0 9 18.13 V 22" stroke-linecap="round" />
</g>
</svg>