<?xml version="1.0" encoding="UTF-8" standalone="no" ?>
<!DOCTYPE svg PUBLIC "-//W3C//DTD SVG 1.1//EN" "http://www.w3.org/Graphics/SVG/1.1/DTD/svg11.dtd">
<svg xmlns="http://www.w3.org/2000/svg" xmlns:xlink="http://www.w3.org/1999/xlink" version="1.1" width="23" height="19" viewBox="0 0 23 19" xml:space="preserve">
<desc>Created with Fabric.js 3.6.3</desc>
<defs>
</defs>
<g transform="matrix(1 0 0 1 12 9.97)"  >
<path style="stroke: rgb(255,255,255); stroke-width: 2; stroke-dasharray: none; stroke-linecap: round; stroke-dashoffset: 0; stroke-linejoin: round; stroke-miterlimit: 4; fill: none; fill-rule: nonzero; opacity: 1;"  transform=" translate(-12, -11.96)" d="M 23 3 a 10.9 10.9 0 0 1 -3.14 1.53 a 4.48 4.48 0 0 0 -7.86 3 v 1 A 10.66 10.66 0 0 1 3 4 s -4 9 5 13 a 11.64 11.64 0 0 1 -7 2 c 9 5 20 0 20 -11.5 a 4.5 4.5 0 0 0 -0.08 -0.83 A 7.72 7.72 0 0 0 23 3 z" stroke-linecap="round" />
</g>
</svg>