<svg xmlns="http://www.w3.org/2000/svg" preserveAspectRatio="xMinYMin meet" viewBox="0 0 350 350"><style>.a { fill:white; font-family: serif; font-size: 20px; } .a1 { fill:white; font-family: serif; font-size: 16px; } .b { fill:white; font-family: serif; font-size: 14px; } .c { fill:white; font-family: serif; font-size: 8px; }</style> <rect width="100%" height="100%" fill="#467494" /><text class="a" x="175" y="40"  text-anchor="middle" >WEB3 IN TRAVEL SUMMIT</text><text class="a1" x="175" y="60"  text-anchor="middle" >Helping the travel industry's transition to Web3</text><text x="175" y="90" text-anchor="middle" class="a1">#1</text><text x="10" y="110" class="b">Porto, Portugal</text><text x="10" y="130" class="b">EDIFICIO DA ALFANDEGA, R. Nova da Alfandega</text><text x="10" y="150" class="b">14th of September 2022</text><text x="10" y="170" class="b">From 10 am to 6 pm</text><text x="10" y="190" class="b">$0 xDAI</text><text x="10" y="210" class="b">0x0000000000000000000000000000000000000000</text><text x="10" y="230" class="b">Standard</text><text x="175" y="330" text-anchor="middle" class="c">Web3InTravel.com by TripsCommunity in partnership with VRWS</text><g transform="translate(145.000000,320.000000) scale(0.010000,-0.010000)" fill="white" stroke="none"> <path d="M3857 5522 c-99 -99 -115 -126 -74 -120 21 3 22 0 25 -86 l3 -88 62 6 c34 3 97 8 140 12 l77 6 0 89 c0 88 0 89 24 89 14 0 27 4 30 9 3 5 -38 47 -92 94 l-99 85 -96 -96z"/> <path d="M3017 5198 c-94 -101 -95 -103 -66 -106 l29 -3 0 -85 0 -84 48 0 c27 0 90 3 140 6 l92 7 0 87 0 87 32 9 31 9 -98 88 c-55 48 -102 87 -106 87 -4 0 -50 -46 -102 -102z"/> <path d="M4079 5074 c-102 -102 -103 -104 -71 -104 l32 0 0 -90 0 -91 58 5 c31 3 96 8 145 12 l87 6 0 89 c0 88 0 89 25 89 44 0 42 3 -136 158 l-35 31 -105 -105z"/> <path d="M5455 4855 c-93 -7 -172 -13 -173 -13 -2 -1 23 -25 57 -53 62 -53 68 -69 25 -69 -24 0 -24 -1 -24 -89 0 -50 -5 -93 -10 -96 -19 -12 -294 -23 -307 -12 -9 6 -13 38 -13 94 0 80 -1 85 -20 80 -40 -10 -31 16 26 75 l59 60 -85 -5 c-47 -3 -249 -16 -450 -27 -201 -12 -380 -23 -399 -26 l-33 -5 26 -28 c29 -30 26 -41 -11 -41 -22 0 -23 -2 -23 -89 l0 -89 -112 -7 c-62 -4 -129 -5 -148 -3 l-35 3 -3 83 c-3 80 -3 82 -27 82 -32 0 -31 7 2 42 l27 28 -37 0 c-44 0 -1980 -117 -2086 -126 l-73 -6 61 -62 c33 -34 61 -64 61 -68 0 -3 -11 -9 -25 -12 -24 -6 -25 -9 -25 -86 l0 -80 -47 -1 c-27 0 -70 -4 -97 -7 -44 -6 -47 -9 -33 -21 23 -19 21 -41 -3 -41 -18 0 -20 -7 -20 -79 l0 -78 -31 -7 c-17 -3 -56 -6 -85 -6 l-54 0 0 -77 0 -77 -55 54 -55 54 -53 -60 c-30 -32 -66 -74 -81 -91 l-28 -33 26 0 c26 0 26 -1 26 -80 l0 -80 77 0 c42 0 127 5 187 11 61 5 161 9 221 7 l110 -3 -72 -76 c-40 -41 -73 -79 -73 -82 0 -4 9 -7 20 -7 18 0 20 -7 20 -80 l0 -80 120 0 119 0 3 78 c3 71 5 77 26 80 12 2 22 6 22 9 0 3 -32 39 -71 81 l-72 77 39 6 c22 4 157 9 302 12 l263 6 -20 -27 c-11 -15 -47 -54 -80 -87 -34 -33 -61 -63 -61 -67 0 -4 11 -8 25 -8 25 0 25 -1 25 -86 0 -85 0 -86 23 -80 12 3 68 6 125 6 l102 0 0 85 0 85 27 0 c26 0 21 6 -57 85 -46 46 -82 87 -79 89 3 3 150 9 327 14 l323 9 27 26 c16 15 32 27 38 27 5 0 36 -27 69 -60 33 -33 65 -60 71 -60 7 0 35 27 64 60 29 33 57 60 64 60 12 0 196 -180 196 -193 0 -4 -11 -7 -25 -7 -24 0 -24 -2 -27 -87 l-3 -88 -187 2 -188 1 0 -66 0 -66 -63 62 -62 62 -93 -93 c-50 -51 -92 -96 -92 -100 0 -4 11 -7 25 -7 25 0 25 -1 25 -85 l0 -85 67 0 68 0 -88 -88 c-48 -48 -87 -91 -87 -95 0 -4 11 -7 25 -7 25 0 25 -1 25 -85 l0 -84 128 -3 127 -3 57 54 57 55 96 -94 c52 -52 95 -100 95 -107 0 -7 -11 -13 -25 -13 -25 0 -25 -1 -25 -85 l0 -85 -130 0 -130 0 0 -25 c0 -14 -4 -25 -8 -25 -4 0 -37 29 -72 65 l-65 65 -87 -87 c-49 -48 -88 -91 -88 -95 0 -5 11 -8 25 -8 25 0 25 -1 25 -85 l0 -85 60 0 c33 0 60 -3 60 -7 0 -4 -30 -38 -67 -75 l-68 -68 -82 82 -82 82 -63 -60 c-35 -33 -75 -71 -90 -84 -35 -29 -35 -40 -3 -40 25 0 25 -1 25 -83 l0 -84 98 -6 c53 -4 112 -7 130 -7 l32 0 0 75 c0 73 1 75 25 75 25 0 25 -1 25 -85 l0 -85 60 0 c33 0 60 -4 60 -9 0 -5 -38 -43 -85 -86 -47 -42 -85 -81 -85 -85 0 -5 10 -10 23 -12 21 -3 22 -8 25 -90 l3 -88 59 0 c33 0 60 -3 60 -6 0 -4 -38 -43 -85 -86 -47 -44 -85 -84 -85 -89 0 -5 11 -9 25 -9 25 0 25 -1 25 -84 0 -99 -13 -91 163 -101 l107 -7 0 -141 -1 -142 -70 73 -71 74 -31 -28 c-74 -66 -147 -139 -147 -146 0 -4 11 -8 25 -8 25 0 25 -1 25 -85 l0 -84 33 -5 c17 -3 86 -10 152 -15 170 -14 990 -89 1048 -96 l47 -6 0 911 0 910 145 0 145 0 0 90 c0 89 0 90 25 90 14 0 25 4 25 8 0 7 -74 80 -162 161 l-37 34 -68 -63 -68 -64 -3 317 -2 317 -54 0 c-64 0 -66 3 -66 106 0 72 -1 74 -25 74 -14 0 -25 4 -25 9 0 5 38 46 85 92 l85 83 0 148 c0 110 3 150 13 153 6 2 351 11 765 21 l752 18 0 533 c0 421 -3 533 -12 531 -7 -1 -89 -7 -183 -13z m-2031 -533 c47 -45 86 -87 86 -92 0 -6 -11 -10 -25 -10 -24 0 -24 -2 -27 -87 l-3 -88 -130 -5 c-71 -3 -136 -1 -142 4 -9 5 -13 35 -13 87 0 77 0 78 -27 81 -27 3 -24 8 71 105 63 65 104 100 112 95 6 -4 51 -44 98 -90z m-969 -25 c87 -81 100 -107 54 -107 -17 0 -19 -7 -19 -79 0 -44 -3 -82 -7 -84 -5 -3 -62 -6 -128 -8 l-120 -4 -3 83 c-3 80 -3 82 -27 82 -14 0 -25 4 -25 9 0 10 169 191 179 191 4 0 47 -37 96 -83z m655 -1307 c0 -27 -1 -50 -3 -50 -1 0 -25 23 -52 50 l-49 50 52 0 52 0 0 -50z m-6 -1009 c-3 -3 -33 23 -66 59 l-60 65 63 5 64 5 3 -64 c2 -35 0 -66 -4 -70z m333 -273 c51 -51 93 -98 93 -105 0 -7 -11 -13 -25 -13 -25 0 -25 -1 -25 -86 l0 -86 -132 7 c-73 4 -136 9 -140 12 -5 2 -8 42 -8 89 0 83 0 84 -25 84 -14 0 -25 5 -25 12 0 13 170 177 185 178 5 0 51 -42 102 -92z m-327 -30 c0 -38 -4 -68 -9 -68 -9 0 -121 120 -121 130 0 3 29 5 65 5 l65 0 0 -67z m854 -327 c95 -95 109 -121 66 -121 -17 0 -20 -9 -22 -82 l-3 -83 -125 4 c-174 5 -170 2 -170 101 0 77 -1 80 -25 86 -14 3 -25 9 -25 13 0 10 184 180 195 181 6 0 55 -45 109 -99z m-903 19 l49 0 0 -65 c0 -36 -4 -65 -9 -65 -10 0 -121 123 -121 135 0 4 7 4 16 1 9 -3 38 -6 65 -6z"/> <path d="M1057 4529 c-73 -82 -77 -89 -53 -89 26 0 26 -1 26 -80 l0 -80 33 0 c17 0 69 3 115 7 l82 6 0 78 c0 72 2 79 20 79 11 0 20 3 20 8 0 8 -153 162 -160 161 -3 0 -40 -41 -83 -90z"/> <path d="M545 4507 c-82 -95 -83 -97 -56 -97 19 0 21 -6 21 -77 l0 -78 97 3 c54 2 104 5 111 7 8 3 12 28 12 80 0 68 2 75 20 75 11 0 20 3 20 8 0 4 -35 42 -77 84 l-78 77 -70 -82z"/> <path d="M828 4200 c-43 -49 -78 -91 -78 -94 0 -3 9 -6 20 -6 18 0 20 -7 20 -75 l0 -76 113 3 112 3 3 79 c2 68 5 79 22 83 11 3 20 8 20 12 0 4 -35 41 -77 83 l-78 77 -77 -89z"/> <path d="M1085 3252 c-70 -76 -77 -87 -58 -90 20 -3 22 -10 25 -80 l3 -77 118 -3 117 -3 0 81 c0 73 2 80 20 80 11 0 20 3 20 6 0 7 -153 174 -160 173 -3 0 -41 -39 -85 -87z"/> <path d="M497 3246 c-72 -79 -76 -86 -53 -86 26 0 26 -1 26 -80 l0 -80 105 0 104 0 3 77 c3 70 5 78 25 83 21 5 16 12 -55 89 l-77 83 -78 -86z"/> <path d="M1955 3000 c-82 -83 -87 -90 -62 -90 l27 0 0 -85 0 -85 125 0 125 0 0 80 c0 73 2 80 19 80 11 0 22 4 25 8 3 5 -34 47 -82 95 l-87 87 -90 -90z"/> <path d="M1670 2773 c-80 -83 -83 -88 -60 -93 24 -6 25 -10 28 -88 l3 -82 119 0 120 0 0 80 c0 73 2 80 20 80 36 0 22 24 -63 108 l-83 83 -84 -88z"/> <path d="M1035 2658 c-66 -71 -74 -83 -56 -86 19 -3 21 -10 21 -78 0 -51 4 -76 13 -79 6 -2 58 -5 115 -7 l102 -4 0 78 c0 69 2 78 18 78 10 0 21 3 25 6 6 7 -143 174 -155 174 -3 0 -41 -37 -83 -82z"/> <path d="M1672 2401 c-76 -82 -81 -91 -58 -91 25 0 25 -2 28 -82 l3 -83 118 -3 117 -3 0 81 c0 73 2 80 20 80 11 0 20 3 20 8 0 4 -38 47 -83 96 l-82 88 -83 -91z"/> <path d="M805 2138 c-68 -72 -75 -83 -57 -86 20 -3 22 -9 22 -81 l0 -78 83 -6 c45 -4 97 -7 115 -7 l32 0 0 80 c0 74 1 80 21 80 l20 0 -20 28 c-12 15 -47 56 -79 90 l-58 64 -79 -84z"/> <path d="M1345 2045 c-71 -78 -75 -85 -51 -85 26 0 26 -1 26 -79 l0 -78 31 -7 c17 -3 69 -6 115 -6 l84 0 0 80 c0 79 0 80 26 80 23 0 19 8 -57 90 -45 50 -85 90 -89 90 -4 0 -42 -38 -85 -85z"/> <path d="M1631 1436 c-83 -83 -84 -85 -58 -91 26 -7 27 -9 27 -85 l0 -78 78 -7 c42 -3 95 -7 117 -8 l40 -2 3 83 c3 74 5 82 22 82 11 0 20 3 20 8 -1 4 -38 46 -83 95 l-82 88 -84 -85z"/> <path d="M1973 1079 c-46 -44 -83 -82 -83 -84 0 -3 11 -5 25 -5 25 0 25 -1 25 -84 l0 -84 103 -7 c56 -3 110 -9 120 -11 15 -5 17 3 17 80 0 83 0 85 26 88 24 3 21 8 -56 93 -44 50 -84 91 -88 92 -4 1 -44 -34 -89 -78z"/> </g></svg>
